<svg id="图层_1" data-name="图层 1" xmlns="http://www.w3.org/2000/svg" viewBox="0 0 40 40"><defs><style>.cls-1{fill:#2483ff;}</style></defs><circle class="cls-1" cx="20.11" cy="20.07" r="2.23"/><path class="cls-1" d="M33.73,21.79h-3s0,0,0-.05H27.45a7.57,7.57,0,1,1,0-3.16h3.27v0h3v0H37a17,17,0,1,0,0,3.16H33.74A.09.09,0,0,0,33.73,21.79ZM20,33.94A13.79,13.79,0,1,1,33,15.34H29.7a10.8,10.8,0,1,0,0,9.67h3.25A13.8,13.8,0,0,1,20,33.94Z"/><path class="cls-1" d="M20,13.47a6.65,6.65,0,0,0-4.57,1.81l1.62,1.62a4.39,4.39,0,0,1,5.85,0l1.63-1.61A6.65,6.65,0,0,0,20,13.47Z"/><path class="cls-1" d="M26.72,20.15A6.65,6.65,0,0,0,25,15.62l-1.63,1.61a4.38,4.38,0,0,1,0,5.88l1.62,1.62A6.69,6.69,0,0,0,26.72,20.15Z"/><path class="cls-1" d="M24.53,25.1l-1.62-1.62a4.38,4.38,0,0,1-5.83-.08L15.45,25a6.69,6.69,0,0,0,9.08.09Z"/><path class="cls-1" d="M13.36,20.15a6.63,6.63,0,0,0,1.72,4.47L16.71,23a4.34,4.34,0,0,1-1.07-2.86,4.39,4.39,0,0,1,1.07-2.86l-1.62-1.62A6.67,6.67,0,0,0,13.36,20.15Z"/><path class="cls-1" d="M20,16a4.15,4.15,0,0,0-2.8,1.07l.76.77a3.09,3.09,0,0,1,2-.77,3.13,3.13,0,0,1,2,.71l.76-.76A4.14,4.14,0,0,0,20,16Z"/><path class="cls-1" d="M24.22,20.15a4.15,4.15,0,0,0-1.06-2.77l-.76.76a3.11,3.11,0,0,1,0,4.05l.76.76A4.16,4.16,0,0,0,24.22,20.15Z"/><path class="cls-1" d="M15.86,20.15a4.18,4.18,0,0,0,1,2.71l.77-.76a3.1,3.1,0,0,1,0-3.9l-.76-.76A4.14,4.14,0,0,0,15.86,20.15Z"/><path class="cls-1" d="M22.75,23.33,22,22.56a3,3,0,0,1-1.95.69,3.13,3.13,0,0,1-2-.76l-.77.75a4.17,4.17,0,0,0,5.52.09Z"/></svg>